<svg width="541" height="37" viewBox="0 0 541 37" fill="none" xmlns="http://www.w3.org/2000/svg">
<path d="M0.802125 36V0.959999H21.8261V6.192H6.70613V15.312H20.1461V20.496H6.70613V30.768H21.8261V36H0.802125ZM29.0074 36V0.959999H40.0954C42.4314 0.959999 44.4474 1.392 46.1434 2.256C47.8714 3.12 49.2154 4.336 50.1754 5.904C51.1354 7.44 51.6154 9.264 51.6154 11.376C51.6154 13.68 51.0234 15.712 49.8394 17.472C48.6874 19.232 47.1194 20.48 45.1354 21.216L52.0954 36H45.3754L39.2794 22.08H35.0074V36H29.0074ZM35.0074 16.8H40.0954C41.7914 16.8 43.1194 16.336 44.0794 15.408C45.0394 14.48 45.5194 13.2 45.5194 11.568C45.5194 9.904 45.0394 8.608 44.0794 7.68C43.1194 6.72 41.7914 6.24 40.0954 6.24H35.0074V16.8ZM57.7886 36V0.959999H68.8766C71.2126 0.959999 73.2286 1.392 74.9246 2.256C76.6526 3.12 77.9966 4.336 78.9566 5.904C79.9166 7.44 80.3966 9.264 80.3966 11.376C80.3966 13.68 79.8046 15.712 78.6206 17.472C77.4686 19.232 75.9006 20.48 73.9166 21.216L80.8766 36H74.1566L68.0606 22.08H63.7886V36H57.7886ZM63.7886 16.8H68.8766C70.5726 16.8 71.9006 16.336 72.8606 15.408C73.8206 14.48 74.3006 13.2 74.3006 11.568C74.3006 9.904 73.8206 8.608 72.8606 7.68C71.9006 6.72 70.5726 6.24 68.8766 6.24H63.7886V16.8ZM97.3219 36.48C95.0819 36.48 93.1299 36.064 91.4659 35.232C89.8339 34.368 88.5699 33.168 87.6739 31.632C86.8099 30.064 86.3779 28.224 86.3779 26.112V10.848C86.3779 8.736 86.8099 6.912 87.6739 5.376C88.5699 3.808 89.8339 2.608 91.4659 1.776C93.1299 0.911999 95.0819 0.48 97.3219 0.48C99.5939 0.48 101.546 0.911999 103.178 1.776C104.81 2.608 106.058 3.808 106.922 5.376C107.818 6.912 108.266 8.72 108.266 10.8V26.112C108.266 28.224 107.818 30.064 106.922 31.632C106.058 33.168 104.81 34.368 103.178 35.232C101.546 36.064 99.5939 36.48 97.3219 36.48ZM97.3219 31.2C98.9539 31.2 100.186 30.768 101.018 29.904C101.85 29.008 102.266 27.744 102.266 26.112V10.848C102.266 9.184 101.85 7.92 101.018 7.056C100.186 6.192 98.9539 5.76 97.3219 5.76C95.6899 5.76 94.4579 6.192 93.6259 7.056C92.7939 7.92 92.3779 9.184 92.3779 10.848V26.112C92.3779 27.744 92.7939 29.008 93.6259 29.904C94.4899 30.768 95.7219 31.2 97.3219 31.2ZM115.351 36V0.959999H126.439C128.775 0.959999 130.791 1.392 132.487 2.256C134.215 3.12 135.559 4.336 136.519 5.904C137.479 7.44 137.959 9.264 137.959 11.376C137.959 13.68 137.367 15.712 136.183 17.472C135.031 19.232 133.463 20.48 131.479 21.216L138.439 36H131.719L125.623 22.08H121.351V36H115.351ZM121.351 16.8H126.439C128.135 16.8 129.463 16.336 130.423 15.408C131.383 14.48 131.863 13.2 131.863 11.568C131.863 9.904 131.383 8.608 130.423 7.68C129.463 6.72 128.135 6.24 126.439 6.24H121.351V16.8ZM154.884 17.184C153.54 17.184 152.452 16.816 151.62 16.08C150.82 15.312 150.42 14.336 150.42 13.152C150.42 11.936 150.82 10.96 151.62 10.224C152.452 9.488 153.54 9.12 154.884 9.12C156.228 9.12 157.3 9.488 158.1 10.224C158.932 10.96 159.348 11.936 159.348 13.152C159.348 14.336 158.932 15.312 158.1 16.08C157.3 16.816 156.228 17.184 154.884 17.184ZM154.884 36.48C153.54 36.48 152.452 36.112 151.62 35.376C150.82 34.64 150.42 33.664 150.42 32.448C150.42 31.232 150.82 30.256 151.62 29.52C152.452 28.784 153.54 28.416 154.884 28.416C156.228 28.416 157.3 28.784 158.1 29.52C158.932 30.256 159.348 31.232 159.348 32.448C159.348 33.664 158.932 34.64 158.1 35.376C157.3 36.112 156.228 36.48 154.884 36.48ZM212.639 36.48C210.399 36.48 208.431 36.064 206.735 35.232C205.071 34.368 203.775 33.168 202.847 31.632C201.951 30.064 201.503 28.224 201.503 26.112V10.848C201.503 8.704 201.951 6.864 202.847 5.328C203.775 3.792 205.071 2.608 206.735 1.776C208.431 0.911999 210.399 0.48 212.639 0.48C214.911 0.48 216.863 0.911999 218.495 1.776C220.159 2.608 221.455 3.792 222.383 5.328C223.311 6.864 223.775 8.704 223.775 10.848H217.727C217.727 9.184 217.279 7.92 216.383 7.056C215.519 6.192 214.271 5.76 212.639 5.76C211.007 5.76 209.743 6.192 208.847 7.056C207.951 7.92 207.503 9.168 207.503 10.8V26.112C207.503 27.744 207.951 29.008 208.847 29.904C209.743 30.768 211.007 31.2 212.639 31.2C214.271 31.2 215.519 30.768 216.383 29.904C217.279 29.008 217.727 27.744 217.727 26.112H223.775C223.775 28.192 223.311 30.016 222.383 31.584C221.455 33.152 220.159 34.368 218.495 35.232C216.863 36.064 214.911 36.48 212.639 36.48ZM230.524 36V0.959999H236.524V15.024H245.932V0.959999H251.932V36H245.932V20.592H236.524V36H230.524ZM259.833 36V0.959999H280.857V6.192H265.737V15.312H279.177V20.496H265.737V30.768H280.857V36H259.833ZM298.983 36.48C296.743 36.48 294.775 36.064 293.079 35.232C291.415 34.368 290.119 33.168 289.191 31.632C288.295 30.064 287.847 28.224 287.847 26.112V10.848C287.847 8.704 288.295 6.864 289.191 5.328C290.119 3.792 291.415 2.608 293.079 1.776C294.775 0.911999 296.743 0.48 298.983 0.48C301.255 0.48 303.207 0.911999 304.839 1.776C306.503 2.608 307.799 3.792 308.727 5.328C309.655 6.864 310.119 8.704 310.119 10.848H304.071C304.071 9.184 303.623 7.92 302.727 7.056C301.863 6.192 300.615 5.76 298.983 5.76C297.351 5.76 296.087 6.192 295.191 7.056C294.295 7.92 293.847 9.168 293.847 10.8V26.112C293.847 27.744 294.295 29.008 295.191 29.904C296.087 30.768 297.351 31.2 298.983 31.2C300.615 31.2 301.863 30.768 302.727 29.904C303.623 29.008 304.071 27.744 304.071 26.112H310.119C310.119 28.192 309.655 30.016 308.727 31.584C307.799 33.152 306.503 34.368 304.839 35.232C303.207 36.064 301.255 36.48 298.983 36.48ZM316.82 36V0.959999H322.82V15.12H326.996L333.572 0.959999H340.1L332.276 17.76L340.484 36H333.812L326.9 20.592H322.82V36H316.82ZM374.334 36V0.959999H384.75C387.118 0.959999 389.166 1.408 390.894 2.304C392.654 3.2 394.014 4.464 394.974 6.096C395.934 7.728 396.414 9.664 396.414 11.904V25.008C396.414 27.216 395.934 29.152 394.974 30.816C394.014 32.448 392.654 33.728 390.894 34.656C389.166 35.552 387.118 36 384.75 36H374.334ZM380.334 30.48H384.75C386.478 30.48 387.854 30 388.878 29.04C389.902 28.048 390.414 26.704 390.414 25.008V11.904C390.414 10.24 389.902 8.928 388.878 7.968C387.854 6.976 386.478 6.48 384.75 6.48H380.334V30.48ZM403.164 36V0.959999H414.252C416.588 0.959999 418.604 1.392 420.3 2.256C422.028 3.12 423.372 4.336 424.332 5.904C425.292 7.44 425.772 9.264 425.772 11.376C425.772 13.68 425.18 15.712 423.996 17.472C422.844 19.232 421.276 20.48 419.292 21.216L426.252 36H419.532L413.436 22.08H409.164V36H403.164ZM409.164 16.8H414.252C415.948 16.8 417.276 16.336 418.236 15.408C419.196 14.48 419.676 13.2 419.676 11.568C419.676 9.904 419.196 8.608 418.236 7.68C417.276 6.72 415.948 6.24 414.252 6.24H409.164V16.8ZM432.617 36V30.72H439.673V6.24H432.617V0.959999H452.777V6.24H445.721V30.72H452.777V36H432.617ZM467.59 36L458.758 0.959999H464.998L470.278 23.808C470.566 24.928 470.838 26.128 471.094 27.408C471.35 28.688 471.542 29.728 471.67 30.528C471.798 29.728 471.974 28.688 472.198 27.408C472.422 26.128 472.662 24.912 472.918 23.76L478.15 0.959999H484.198L475.366 36H467.59ZM490.083 36V0.959999H511.107V6.192H495.987V15.312H509.427V20.496H495.987V30.768H511.107V36H490.083ZM529.137 36.48C526.737 36.48 524.657 36.08 522.897 35.28C521.137 34.48 519.777 33.344 518.817 31.872C517.889 30.368 517.409 28.608 517.377 26.592H523.377C523.377 28.032 523.889 29.168 524.913 30C525.969 30.8 527.393 31.2 529.185 31.2C530.913 31.2 532.257 30.8 533.217 30C534.209 29.2 534.705 28.096 534.705 26.688C534.705 25.504 534.353 24.48 533.649 23.616C532.977 22.72 532.001 22.112 530.721 21.792L526.689 20.688C523.937 19.984 521.809 18.72 520.305 16.896C518.833 15.072 518.097 12.864 518.097 10.272C518.097 8.288 518.545 6.56 519.441 5.088C520.337 3.616 521.601 2.48 523.233 1.68C524.897 0.879999 526.849 0.48 529.089 0.48C532.481 0.48 535.169 1.36 537.153 3.12C539.137 4.848 540.145 7.184 540.177 10.128H534.177C534.177 8.752 533.729 7.68 532.833 6.912C531.937 6.112 530.673 5.712 529.041 5.712C527.473 5.712 526.257 6.08 525.393 6.816C524.529 7.552 524.097 8.592 524.097 9.936C524.097 11.152 524.417 12.192 525.057 13.056C525.729 13.888 526.689 14.48 527.937 14.832L532.113 15.984C534.897 16.688 537.025 17.952 538.497 19.776C539.969 21.568 540.705 23.792 540.705 26.448C540.705 28.432 540.225 30.192 539.265 31.728C538.305 33.232 536.961 34.4 535.233 35.232C533.505 36.064 531.473 36.48 529.137 36.48Z" fill="#FF0000"/>
</svg>
