<svg width="1200" height="700" viewBox="0 0 1200 700" fill="none" xmlns="http://www.w3.org/2000/svg">
<rect width="1200" height="700" fill="black"/>
<rect width="1200" height="33" fill="white"/>
<line x1="1" y1="-1" x2="11.7154" y2="-1" transform="matrix(0.669951 0.742406 -0.742408 0.669948 1181 12)" stroke="black" stroke-width="2" stroke-linecap="round"/>
<line x1="1" y1="-1" x2="11.5926" y2="-1" transform="matrix(0.661835 -0.749649 0.749642 0.661843 1182.67 21.4401)" stroke="black" stroke-width="2" stroke-linecap="round"/>
<line x1="1172.5" y1="7" x2="1172.5" y2="26" stroke="black"/>
<line x1="1145.5" y1="7" x2="1145.5" y2="26" stroke="black"/>
<rect x="1155" y="13" width="7" height="7" rx="2" stroke="black" stroke-width="2" stroke-linejoin="round"/>
<line x1="1127" y1="17" x2="1135" y2="17" stroke="black" stroke-width="2" stroke-linecap="round"/>
<path d="M330.802 367V331.96H351.826V337.192H336.706V346.312H350.146V351.496H336.706V361.768H351.826V367H330.802ZM359.007 367V331.96H370.095C372.431 331.96 374.447 332.392 376.143 333.256C377.871 334.12 379.215 335.336 380.175 336.904C381.135 338.44 381.615 340.264 381.615 342.376C381.615 344.68 381.023 346.712 379.839 348.472C378.687 350.232 377.119 351.48 375.135 352.216L382.095 367H375.375L369.279 353.08H365.007V367H359.007ZM365.007 347.8H370.095C371.791 347.8 373.119 347.336 374.079 346.408C375.039 345.48 375.519 344.2 375.519 342.568C375.519 340.904 375.039 339.608 374.079 338.68C373.119 337.72 371.791 337.24 370.095 337.24H365.007V347.8ZM387.789 367V331.96H398.877C401.213 331.96 403.229 332.392 404.925 333.256C406.653 334.12 407.997 335.336 408.957 336.904C409.917 338.44 410.397 340.264 410.397 342.376C410.397 344.68 409.805 346.712 408.621 348.472C407.469 350.232 405.901 351.48 403.917 352.216L410.877 367H404.157L398.061 353.08H393.789V367H387.789ZM393.789 347.8H398.877C400.573 347.8 401.901 347.336 402.861 346.408C403.821 345.48 404.301 344.2 404.301 342.568C404.301 340.904 403.821 339.608 402.861 338.68C401.901 337.72 400.573 337.24 398.877 337.24H393.789V347.8ZM427.322 367.48C425.082 367.48 423.13 367.064 421.466 366.232C419.834 365.368 418.57 364.168 417.674 362.632C416.81 361.064 416.378 359.224 416.378 357.112V341.848C416.378 339.736 416.81 337.912 417.674 336.376C418.57 334.808 419.834 333.608 421.466 332.776C423.13 331.912 425.082 331.48 427.322 331.48C429.594 331.48 431.546 331.912 433.178 332.776C434.81 333.608 436.058 334.808 436.922 336.376C437.818 337.912 438.266 339.72 438.266 341.8V357.112C438.266 359.224 437.818 361.064 436.922 362.632C436.058 364.168 434.81 365.368 433.178 366.232C431.546 367.064 429.594 367.48 427.322 367.48ZM427.322 362.2C428.954 362.2 430.186 361.768 431.018 360.904C431.85 360.008 432.266 358.744 432.266 357.112V341.848C432.266 340.184 431.85 338.92 431.018 338.056C430.186 337.192 428.954 336.76 427.322 336.76C425.69 336.76 424.458 337.192 423.626 338.056C422.794 338.92 422.378 340.184 422.378 341.848V357.112C422.378 358.744 422.794 360.008 423.626 360.904C424.49 361.768 425.722 362.2 427.322 362.2ZM445.351 367V331.96H456.439C458.775 331.96 460.791 332.392 462.487 333.256C464.215 334.12 465.559 335.336 466.519 336.904C467.479 338.44 467.959 340.264 467.959 342.376C467.959 344.68 467.367 346.712 466.183 348.472C465.031 350.232 463.463 351.48 461.479 352.216L468.439 367H461.719L455.623 353.08H451.351V367H445.351ZM451.351 347.8H456.439C458.135 347.8 459.463 347.336 460.423 346.408C461.383 345.48 461.863 344.2 461.863 342.568C461.863 340.904 461.383 339.608 460.423 338.68C459.463 337.72 458.135 337.24 456.439 337.24H451.351V347.8ZM484.884 348.184C483.54 348.184 482.452 347.816 481.62 347.08C480.82 346.312 480.42 345.336 480.42 344.152C480.42 342.936 480.82 341.96 481.62 341.224C482.452 340.488 483.54 340.12 484.884 340.12C486.228 340.12 487.3 340.488 488.1 341.224C488.932 341.96 489.348 342.936 489.348 344.152C489.348 345.336 488.932 346.312 488.1 347.08C487.3 347.816 486.228 348.184 484.884 348.184ZM484.884 367.48C483.54 367.48 482.452 367.112 481.62 366.376C480.82 365.64 480.42 364.664 480.42 363.448C480.42 362.232 480.82 361.256 481.62 360.52C482.452 359.784 483.54 359.416 484.884 359.416C486.228 359.416 487.3 359.784 488.1 360.52C488.932 361.256 489.348 362.232 489.348 363.448C489.348 364.664 488.932 365.64 488.1 366.376C487.3 367.112 486.228 367.48 484.884 367.48ZM542.639 367.48C540.399 367.48 538.431 367.064 536.735 366.232C535.071 365.368 533.775 364.168 532.847 362.632C531.951 361.064 531.503 359.224 531.503 357.112V341.848C531.503 339.704 531.951 337.864 532.847 336.328C533.775 334.792 535.071 333.608 536.735 332.776C538.431 331.912 540.399 331.48 542.639 331.48C544.911 331.48 546.863 331.912 548.495 332.776C550.159 333.608 551.455 334.792 552.383 336.328C553.311 337.864 553.775 339.704 553.775 341.848H547.727C547.727 340.184 547.279 338.92 546.383 338.056C545.519 337.192 544.271 336.76 542.639 336.76C541.007 336.76 539.743 337.192 538.847 338.056C537.951 338.92 537.503 340.168 537.503 341.8V357.112C537.503 358.744 537.951 360.008 538.847 360.904C539.743 361.768 541.007 362.2 542.639 362.2C544.271 362.2 545.519 361.768 546.383 360.904C547.279 360.008 547.727 358.744 547.727 357.112H553.775C553.775 359.192 553.311 361.016 552.383 362.584C551.455 364.152 550.159 365.368 548.495 366.232C546.863 367.064 544.911 367.48 542.639 367.48ZM560.524 367V331.96H566.524V346.024H575.932V331.96H581.932V367H575.932V351.592H566.524V367H560.524ZM589.833 367V331.96H610.857V337.192H595.737V346.312H609.177V351.496H595.737V361.768H610.857V367H589.833ZM628.983 367.48C626.743 367.48 624.775 367.064 623.079 366.232C621.415 365.368 620.119 364.168 619.191 362.632C618.295 361.064 617.847 359.224 617.847 357.112V341.848C617.847 339.704 618.295 337.864 619.191 336.328C620.119 334.792 621.415 333.608 623.079 332.776C624.775 331.912 626.743 331.48 628.983 331.48C631.255 331.48 633.207 331.912 634.839 332.776C636.503 333.608 637.799 334.792 638.727 336.328C639.655 337.864 640.119 339.704 640.119 341.848H634.071C634.071 340.184 633.623 338.92 632.727 338.056C631.863 337.192 630.615 336.76 628.983 336.76C627.351 336.76 626.087 337.192 625.191 338.056C624.295 338.92 623.847 340.168 623.847 341.8V357.112C623.847 358.744 624.295 360.008 625.191 360.904C626.087 361.768 627.351 362.2 628.983 362.2C630.615 362.2 631.863 361.768 632.727 360.904C633.623 360.008 634.071 358.744 634.071 357.112H640.119C640.119 359.192 639.655 361.016 638.727 362.584C637.799 364.152 636.503 365.368 634.839 366.232C633.207 367.064 631.255 367.48 628.983 367.48ZM646.82 367V331.96H652.82V346.12H656.996L663.572 331.96H670.1L662.276 348.76L670.484 367H663.812L656.9 351.592H652.82V367H646.82ZM704.334 367V331.96H714.75C717.118 331.96 719.166 332.408 720.894 333.304C722.654 334.2 724.014 335.464 724.974 337.096C725.934 338.728 726.414 340.664 726.414 342.904V356.008C726.414 358.216 725.934 360.152 724.974 361.816C724.014 363.448 722.654 364.728 720.894 365.656C719.166 366.552 717.118 367 714.75 367H704.334ZM710.334 361.48H714.75C716.478 361.48 717.854 361 718.878 360.04C719.902 359.048 720.414 357.704 720.414 356.008V342.904C720.414 341.24 719.902 339.928 718.878 338.968C717.854 337.976 716.478 337.48 714.75 337.48H710.334V361.48ZM733.164 367V331.96H744.252C746.588 331.96 748.604 332.392 750.3 333.256C752.028 334.12 753.372 335.336 754.332 336.904C755.292 338.44 755.772 340.264 755.772 342.376C755.772 344.68 755.18 346.712 753.996 348.472C752.844 350.232 751.276 351.48 749.292 352.216L756.252 367H749.532L743.436 353.08H739.164V367H733.164ZM739.164 347.8H744.252C745.948 347.8 747.276 347.336 748.236 346.408C749.196 345.48 749.676 344.2 749.676 342.568C749.676 340.904 749.196 339.608 748.236 338.68C747.276 337.72 745.948 337.24 744.252 337.24H739.164V347.8ZM762.617 367V361.72H769.673V337.24H762.617V331.96H782.777V337.24H775.721V361.72H782.777V367H762.617ZM797.59 367L788.758 331.96H794.998L800.278 354.808C800.566 355.928 800.838 357.128 801.094 358.408C801.35 359.688 801.542 360.728 801.67 361.528C801.798 360.728 801.974 359.688 802.198 358.408C802.422 357.128 802.662 355.912 802.918 354.76L808.15 331.96H814.198L805.366 367H797.59ZM820.083 367V331.96H841.107V337.192H825.987V346.312H839.427V351.496H825.987V361.768H841.107V367H820.083ZM859.137 367.48C856.737 367.48 854.657 367.08 852.897 366.28C851.137 365.48 849.777 364.344 848.817 362.872C847.889 361.368 847.409 359.608 847.377 357.592H853.377C853.377 359.032 853.889 360.168 854.913 361C855.969 361.8 857.393 362.2 859.185 362.2C860.913 362.2 862.257 361.8 863.217 361C864.209 360.2 864.705 359.096 864.705 357.688C864.705 356.504 864.353 355.48 863.649 354.616C862.977 353.72 862.001 353.112 860.721 352.792L856.689 351.688C853.937 350.984 851.809 349.72 850.305 347.896C848.833 346.072 848.097 343.864 848.097 341.272C848.097 339.288 848.545 337.56 849.441 336.088C850.337 334.616 851.601 333.48 853.233 332.68C854.897 331.88 856.849 331.48 859.089 331.48C862.481 331.48 865.169 332.36 867.153 334.12C869.137 335.848 870.145 338.184 870.177 341.128H864.177C864.177 339.752 863.729 338.68 862.833 337.912C861.937 337.112 860.673 336.712 859.041 336.712C857.473 336.712 856.257 337.08 855.393 337.816C854.529 338.552 854.097 339.592 854.097 340.936C854.097 342.152 854.417 343.192 855.057 344.056C855.729 344.888 856.689 345.48 857.937 345.832L862.113 346.984C864.897 347.688 867.025 348.952 868.497 350.776C869.969 352.568 870.705 354.792 870.705 357.448C870.705 359.432 870.225 361.192 869.265 362.728C868.305 364.232 866.961 365.4 865.233 366.232C863.505 367.064 861.473 367.48 859.137 367.48Z" fill="#EF0F0F"/>
</svg>
